# xmcd
#
# Track frame offsets:
# 150
# 12569
# 39199
# 74596
# 100050
# 119206
# 141165
# 163143
# 187781
# 208306
# 229354
# 251735
# 270870
# 290090
# 311146
# 328941
#
# Disc length: 4416 seconds
#
#
# Revision: 0
# Processed by: cddbd v1.5.2PL0 Copyright (c) Steve Scherf et al.
# Submitted via: FreeRIP 2.942 
#
DISCID=fd113e10
DTITLE=cristo te salva - cristo te salva en vivo
DYEAR=1900
DGENRE=cumbia
TTITLE0=intro
TTITLE1=alegres
TTITLE2=yo me alegre
TTITLE3=lo sentimos en el viento
TTITLE4=ven el
TTITLE5=eso fue ayer
TTITLE6=mi primavera
TTITLE7=no permitras
TTITLE8=señor jesus
TTITLE9=consejo
TTITLE10=abriendo surcos
TTITLE11=donde quedo
TTITLE12=enamorado
TTITLE13=alegrate joven
TTITLE14=arrepentido
TTITLE15=quiero
EXTD=by ruben serrano
EXTT0=
EXTT1=
EXTT2=
EXTT3=
EXTT4=
EXTT5=
EXTT6=
EXTT7=
EXTT8=
EXTT9=
EXTT10=
EXTT11=
EXTT12=
EXTT13=
EXTT14=
EXTT15=
PLAYORDER=
